<?xml version="1.0" encoding="utf-8"?>
<!-- Generator: Adobe Illustrator 21.0.2, SVG Export Plug-In . SVG Version: 6.00 Build 0)  -->
<svg version="1.1" id="Layer_1" xmlns="http://www.w3.org/2000/svg" xmlns:xlink="http://www.w3.org/1999/xlink" x="0px" y="0px"
	 viewBox="0 0 334.5 176.6" style="enable-background:new 0 0 334.5 176.6;" xml:space="preserve">
<style type="text/css">
	.st0{enable-background:new    ;}
	.st1{fill:#FFFFFF;}
	.st2{fill:none;stroke:#FFFFFF;stroke-width:2;stroke-miterlimit:10;}
</style>
<title>Asset 4</title>
<g id="Layer_2">
	<g id="Layer_1-2">
		<g class="st0">
			<path class="st1" d="M186.4,54.5l-0.7-2.3h-7l-0.7,2.3h-6.7l7.2-19.4h7.4l7.2,19.4H186.4z M182.2,40.9l-1.9,6.3h3.8L182.2,40.9z"
				/>
			<path class="st1" d="M194.2,54.5V45h-2.3v-4.5h2.3v-0.6c0-2.9,2.2-5,5.4-5c1.6,0,3.4,0.5,4.4,1.5l-1.9,2.9
				c-0.3-0.4-0.7-0.6-1.3-0.6c-0.6,0-1.3,0.4-1.3,1.1v0.6h2.9V45h-2.9v9.5H194.2z"/>
			<path class="st1" d="M203.9,54.5V40.5h5.2V42c0.9-1,2.7-2,4.3-2v5c-0.3-0.1-0.7-0.1-1.2-0.1c-1.1,0-2.5,0.3-3.1,1v8.6H203.9z"/>
			<path class="st1" d="M215,36.5c0-1.6,1.3-2.9,2.9-2.9c1.6,0,2.9,1.3,2.9,2.9c0,1.6-1.3,2.9-2.9,2.9C216.3,39.4,215,38.1,215,36.5
				z M215.3,54.5V40.5h5.2v14.1H215.3z"/>
			<path class="st1" d="M222.5,47.5c0-4.5,3.4-7.4,7.9-7.4c3.2,0,5.2,1.5,6,2.6l-3.4,3.2c-0.4-0.7-1.3-1.2-2.4-1.2
				c-1.5,0-2.8,0.9-2.8,2.7c0,1.8,1.3,2.8,2.8,2.8c1.1,0,1.9-0.6,2.4-1.2l3.4,3.2c-0.8,1.2-2.8,2.6-6,2.6
				C225.9,54.9,222.5,52,222.5,47.5z"/>
			<path class="st1" d="M246.2,54.5v-1.3c-0.8,1-2.5,1.7-4.3,1.7c-2.1,0-4.8-1.4-4.8-4.6c0-3.5,2.7-4.5,4.8-4.5
				c1.8,0,3.5,0.6,4.3,1.5v-1.5c0-1-0.9-1.7-2.6-1.7c-1.3,0-2.8,0.5-3.9,1.4l-1.8-3.2c1.9-1.5,4.5-2.1,6.6-2.1
				c3.5,0,6.9,1.2,6.9,5.9v8.5H246.2z M246.2,50.7v-0.8c-0.3-0.5-1.3-0.8-2.1-0.8c-0.9,0-1.8,0.3-1.8,1.2s1,1.1,1.8,1.1
				C244.9,51.5,245.8,51.2,246.2,50.7z"/>
			<path class="st1" d="M263.8,54.5v-7.8c0-1.5-0.8-2-2-2c-1.2,0-1.8,0.6-2.2,1.1v8.7h-5.2V40.5h5.2v1.6c0.8-0.9,2.4-2,4.8-2
				c3.3,0,4.7,2,4.7,4.4v10H263.8z"/>
		</g>
		<g class="st0">
			<path class="st1" d="M173.4,75.1V63.7h6v11.2c0,1.9,1.2,3.3,3.6,3.3c2.4,0,3.6-1.5,3.6-3.3V63.7h6v11.4c0,4.8-3,8.4-9.6,8.4
				S173.4,79.9,173.4,75.1z"/>
			<path class="st1" d="M205.2,83.1v-7.8c0-1.5-0.8-2-2-2c-1.2,0-1.8,0.6-2.2,1.1v8.7h-5.2V69h5.2v1.6c0.8-0.9,2.4-2,4.8-2
				c3.3,0,4.7,2,4.7,4.4v10H205.2z"/>
			<path class="st1" d="M213,65.1c0-1.6,1.3-2.9,2.9-2.9c1.6,0,2.9,1.3,2.9,2.9c0,1.6-1.3,2.9-2.9,2.9C214.3,68,213,66.7,213,65.1z
				 M213.3,83.1V69h5.2v14.1H213.3z"/>
			<path class="st1" d="M225,83.1L219.6,69h5.5l2.7,8l2.7-8h5.5l-5.4,14.1H225z"/>
			<path class="st1" d="M236.1,76.1c0-4.1,3.1-7.4,7.7-7.4c4.1,0,7.3,3,7.3,7.9v1.1h-9.5c0.3,0.9,1.3,1.8,3,1.8c0.8,0,2.5-0.4,3.2-1
				l2.2,3.2c-1.4,1.2-3.9,1.7-6,1.7C239.5,83.4,236.1,80.7,236.1,76.1z M243.7,72.7c-1.6,0-2.1,1-2.3,1.7h4.6
				C245.9,73.8,245.4,72.7,243.7,72.7z"/>
			<path class="st1" d="M252.9,83.1V69h5.2v1.5c0.9-1,2.7-2,4.3-2v5c-0.3-0.1-0.7-0.1-1.2-0.1c-1.1,0-2.5,0.3-3.1,1v8.6H252.9z"/>
			<path class="st1" d="M263,81.3l2.1-3.5c1.1,0.9,3.5,1.8,5.1,1.8c1.1,0,1.4-0.3,1.4-0.6c0-1.3-8,0.4-8-5.5c0-2.5,2.2-4.7,6.3-4.7
				c2.4,0,4.5,0.7,6.1,1.8l-1.9,3.4c-0.9-0.7-2.5-1.5-4.1-1.5c-0.8,0-1.3,0.2-1.3,0.6c0,1.2,8-0.3,8,5.6c0,2.8-2.5,4.8-6.7,4.8
				C267.3,83.4,264.5,82.5,263,81.3z"/>
			<path class="st1" d="M278.1,65.1c0-1.6,1.3-2.9,2.9-2.9c1.6,0,2.9,1.3,2.9,2.9c0,1.6-1.3,2.9-2.9,2.9
				C279.5,68,278.1,66.7,278.1,65.1z M278.5,83.1V69h5.2v14.1H278.5z"/>
			<path class="st1" d="M287.7,79v-5.4h-2.3V69h2.3v-3.8h5.2V69h2.9v4.5h-2.9v3.9c0,0.7,0.5,1.3,1.2,1.3c0.5,0,0.9-0.1,1-0.3l0.9,4
				c-0.6,0.5-1.8,0.9-3.6,0.9C289.4,83.4,287.7,82,287.7,79z"/>
			<path class="st1" d="M297.4,65.1c0-1.6,1.3-2.9,2.9-2.9c1.6,0,2.9,1.3,2.9,2.9c0,1.6-1.3,2.9-2.9,2.9
				C298.7,68,297.4,66.7,297.4,65.1z M297.7,83.1V69h5.2v14.1H297.7z"/>
			<path class="st1" d="M304.9,76.1c0-4.1,3.1-7.4,7.7-7.4c4.1,0,7.3,3,7.3,7.9v1.1h-9.5c0.3,0.9,1.3,1.8,3,1.8c0.8,0,2.5-0.4,3.2-1
				l2.2,3.2c-1.4,1.2-3.9,1.7-6,1.7C308.4,83.4,304.9,80.7,304.9,76.1z M312.6,72.7c-1.6,0-2.1,1-2.3,1.7h4.6
				C314.8,73.8,314.3,72.7,312.6,72.7z"/>
			<path class="st1" d="M320.5,81.3l2.1-3.5c1.1,0.9,3.5,1.8,5.1,1.8c1.1,0,1.4-0.3,1.4-0.6c0-1.3-8,0.4-8-5.5
				c0-2.5,2.2-4.7,6.3-4.7c2.4,0,4.5,0.7,6.1,1.8l-1.9,3.4c-0.9-0.7-2.5-1.5-4.1-1.5c-0.8,0-1.3,0.2-1.3,0.6c0,1.2,8-0.3,8,5.6
				c0,2.8-2.5,4.8-6.7,4.8C324.8,83.4,322,82.5,320.5,81.3z"/>
		</g>
		<g class="st0">
			<path class="st1" d="M173.8,111.7V92.3h4.1v19.4H173.8z"/>
			<path class="st1" d="M191.2,111.7v-8.5c0-2-1-2.6-2.6-2.6c-1.5,0-2.6,0.8-3.2,1.6v9.5h-3.7V97.6h3.7v1.8c0.9-1,2.6-2.2,4.9-2.2
				c3.1,0,4.6,1.7,4.6,4.5v9.9H191.2z"/>
			<path class="st1" d="M208,111.7v-8.5c0-2-1-2.6-2.6-2.6c-1.5,0-2.6,0.8-3.2,1.6v9.5h-3.7V97.6h3.7v1.8c0.9-1,2.6-2.2,4.9-2.2
				c3.1,0,4.6,1.7,4.6,4.5v9.9H208z"/>
			<path class="st1" d="M214.5,104.6c0-4,2.8-7.4,7.4-7.4c4.7,0,7.5,3.4,7.5,7.4c0,4-2.8,7.4-7.5,7.4
				C217.3,112,214.5,108.6,214.5,104.6z M225.5,104.6c0-2.2-1.3-4.1-3.6-4.1c-2.3,0-3.6,1.9-3.6,4.1c0,2.2,1.3,4.1,3.6,4.1
				C224.2,108.7,225.5,106.8,225.5,104.6z"/>
			<path class="st1" d="M235.8,111.7l-5.6-14.1h4l3.7,9.8l3.7-9.8h4l-5.6,14.1H235.8z"/>
			<path class="st1" d="M255.5,111.7v-1.5c-1,1.2-2.6,1.8-4.5,1.8c-2.2,0-4.9-1.5-4.9-4.7c0-3.3,2.6-4.5,4.9-4.5
				c1.9,0,3.5,0.6,4.5,1.7v-1.8c0-1.4-1.2-2.4-3.1-2.4c-1.5,0-2.9,0.6-4,1.7l-1.5-2.6c1.7-1.5,3.9-2.2,6.1-2.2
				c3.2,0,6.2,1.3,6.2,5.3v9.1H255.5z M255.5,108.3v-1.7c-0.6-0.8-1.8-1.3-3-1.3c-1.5,0-2.6,0.8-2.6,2.1c0,1.3,1.2,2.1,2.6,2.1
				C253.7,109.5,254.9,109.1,255.5,108.3z"/>
			<path class="st1" d="M263.6,108.2v-7.3h-2.3v-3.2h2.3v-3.8h3.7v3.8h2.9v3.2h-2.9v6.3c0,0.9,0.5,1.6,1.3,1.6
				c0.6,0,1.1-0.2,1.3-0.4l0.8,2.8c-0.6,0.5-1.5,0.9-3.1,0.9C265,112,263.6,110.7,263.6,108.2z"/>
			<path class="st1" d="M272.4,93.9c0-1.2,1-2.2,2.2-2.2c1.2,0,2.2,1,2.2,2.2c0,1.2-1,2.2-2.2,2.2C273.3,96.1,272.4,95.1,272.4,93.9
				z M272.7,111.7V97.6h3.7v14.1H272.7z"/>
			<path class="st1" d="M279.2,104.6c0-4,2.8-7.4,7.4-7.4c4.7,0,7.5,3.4,7.5,7.4c0,4-2.8,7.4-7.5,7.4
				C282,112,279.2,108.6,279.2,104.6z M290.2,104.6c0-2.2-1.3-4.1-3.6-4.1c-2.3,0-3.6,1.9-3.6,4.1c0,2.2,1.3,4.1,3.6,4.1
				C288.9,108.7,290.2,106.8,290.2,104.6z"/>
			<path class="st1" d="M306.3,111.7v-8.5c0-2-1-2.6-2.6-2.6c-1.5,0-2.6,0.8-3.2,1.6v9.5h-3.7V97.6h3.7v1.8c0.9-1,2.6-2.2,4.9-2.2
				c3.1,0,4.6,1.7,4.6,4.5v9.9H306.3z"/>
		</g>
		<g class="st0">
			<path class="st1" d="M187.2,140.2L186,137h-8.3l-1.2,3.3h-4.7l7.5-19.4h5.2l7.5,19.4H187.2z M181.8,125l-3,8.4h6.1L181.8,125z"/>
			<path class="st1" d="M192.7,133.2c0-4.3,3.1-7.4,7.5-7.4c2.9,0,4.6,1.3,5.6,2.5l-2.4,2.3c-0.7-1-1.7-1.5-3-1.5
				c-2.2,0-3.8,1.6-3.8,4.1c0,2.4,1.6,4.1,3.8,4.1c1.3,0,2.3-0.6,3-1.5l2.4,2.3c-0.9,1.3-2.7,2.6-5.6,2.6
				C195.9,140.6,192.7,137.5,192.7,133.2z"/>
			<path class="st1" d="M207.2,133.2c0-4.3,3.1-7.4,7.5-7.4c2.9,0,4.6,1.3,5.6,2.5l-2.4,2.3c-0.7-1-1.7-1.5-3-1.5
				c-2.2,0-3.8,1.6-3.8,4.1c0,2.4,1.6,4.1,3.8,4.1c1.3,0,2.3-0.6,3-1.5l2.4,2.3c-0.9,1.3-2.7,2.6-5.6,2.6
				C210.4,140.6,207.2,137.5,207.2,133.2z"/>
			<path class="st1" d="M221.8,133.2c0-4.1,3-7.4,7.3-7.4c4.2,0,7,3.1,7,7.7v0.9h-10.5c0.3,1.7,1.7,3.1,4,3.1c1.2,0,2.8-0.5,3.7-1.4
				l1.7,2.4c-1.4,1.3-3.6,2-5.8,2C225,140.6,221.8,137.7,221.8,133.2z M229,128.9c-2.3,0-3.3,1.6-3.4,3h6.9
				C232.4,130.5,231.5,128.9,229,128.9z"/>
			<path class="st1" d="M238.8,140.2v-19.4h3.7v19.4H238.8z"/>
			<path class="st1" d="M245.2,133.2c0-4.1,3-7.4,7.3-7.4c4.2,0,7,3.1,7,7.7v0.9h-10.5c0.3,1.7,1.7,3.1,4,3.1c1.2,0,2.8-0.5,3.7-1.4
				l1.7,2.4c-1.4,1.3-3.6,2-5.8,2C248.5,140.6,245.2,137.7,245.2,133.2z M252.5,128.9c-2.3,0-3.3,1.6-3.4,3h6.9
				C255.9,130.5,255,128.9,252.5,128.9z"/>
			<path class="st1" d="M262.2,140.2v-14.1h3.7v1.9c1-1.2,2.7-2.2,4.5-2.2v3.6c-0.3-0.1-0.6-0.1-1-0.1c-1.2,0-2.9,0.7-3.5,1.6v9.3
				H262.2z"/>
			<path class="st1" d="M281.1,140.2v-1.5c-1,1.2-2.6,1.8-4.5,1.8c-2.2,0-4.9-1.5-4.9-4.7c0-3.3,2.6-4.5,4.9-4.5
				c1.9,0,3.5,0.6,4.5,1.7v-1.8c0-1.4-1.2-2.4-3.1-2.4c-1.5,0-2.9,0.6-4,1.7l-1.5-2.6c1.7-1.5,3.9-2.2,6.1-2.2
				c3.2,0,6.2,1.3,6.2,5.3v9.1H281.1z M281.1,136.9v-1.7c-0.6-0.8-1.8-1.3-3-1.3c-1.5,0-2.6,0.8-2.6,2.1c0,1.3,1.2,2.1,2.6,2.1
				C279.4,138.1,280.5,137.7,281.1,136.9z"/>
			<path class="st1" d="M289.3,136.7v-7.3h-2.3v-3.2h2.3v-3.8h3.7v3.8h2.9v3.2H293v6.3c0,0.9,0.5,1.6,1.3,1.6c0.6,0,1.1-0.2,1.3-0.4
				l0.8,2.8c-0.6,0.5-1.5,0.9-3.1,0.9C290.6,140.6,289.3,139.3,289.3,136.7z"/>
			<path class="st1" d="M297.4,133.2c0-4,2.8-7.4,7.4-7.4c4.7,0,7.5,3.4,7.5,7.4c0,4-2.8,7.4-7.5,7.4
				C300.2,140.6,297.4,137.2,297.4,133.2z M308.5,133.2c0-2.2-1.3-4.1-3.6-4.1c-2.3,0-3.6,1.9-3.6,4.1c0,2.2,1.3,4.1,3.6,4.1
				C307.2,137.3,308.5,135.4,308.5,133.2z"/>
			<path class="st1" d="M315.1,140.2v-14.1h3.7v1.9c1-1.2,2.7-2.2,4.5-2.2v3.6c-0.3-0.1-0.6-0.1-1-0.1c-1.2,0-2.9,0.7-3.5,1.6v9.3
				H315.1z"/>
		</g>
		<line class="st2" x1="150.4" y1="0" x2="150.4" y2="176.6"/>
		<path class="st1" d="M44.7,17.3c1.1,0.5,1.9,1.5,2.1,2.7c0.3,1,0.7,2,1.2,3l-2.5,1.5C43,26,40.5,27.5,38,29
			c-1.3,0.8-2.6,1.5-3.9,2.2c-3.3,2.1-6.7,4.2-10,6.3c-5.5,3.6-10.9,7.3-16.5,10.8c-2.2,1.2-4.4,2.3-6.7,3.3
			c-0.3,0.1-0.6,0.2-0.9,0.3c0.1-2.8-0.3-5.4,1.7-7.8c5-6.1,9.7-12.5,14.6-18.6c1.6-2,3.4-3.7,5.1-5.6c0.3-0.2,0.6-0.4,1-0.4
			c3.6-0.4,7.2-0.7,10.7-1.1l9.2-1c0.1,0,0.2-0.1,0.3-0.1H44.7z"/>
		<path class="st1" d="M62.8,149.7c-0.9-0.8-1.8-1.6-2.7-2.4c-0.2-0.2-0.4-0.5-0.5-0.7c-1.3-4-2.7-8-4-12.2c0.3,0.1,0.6,0.3,0.8,0.4
			c1.6,1.1,3.3,2.1,4.9,3.3c4.2,3,8.3,6,12.5,9.1c0.2,0.1,0.4,0.3,0.8,0.6c-1.6,0.3-3,0.6-4.4,0.8c-2.2,0.4-4.4,0.7-6.7,1.1
			c-0.1,0-0.2,0.1-0.3,0.1L62.8,149.7z"/>
		<path class="st1" d="M95.6,117.1c-3-2.6-5.8-5.1-8.8-7.6C76.3,101,65,93.5,53,87.1c-2.1-1.1-4.3-1.8-6.6-2.1l-0.7-0.1
			c0-1.7,0.5-3.1,2.7-7.1l-0.7-0.1c-0.2,0-0.5-0.1-0.7-0.3c1.8-0.2,3.6-0.5,5.5-0.7c4.5-0.5,8.9-0.6,13.4-0.2
			c5.7,0.4,11.2,1.8,16.4,4.1c5.7,2.5,11.2,5.4,16.9,8.1c0.9,0.4,1.8,0.9,2.7,1.4c-1.8,2.3-4,4.3-3.6,7.8c-0.9-0.4-1.7-0.6-2.4-1
			c-1.7-0.9-3.5-1.8-5.1-2.7c-4-2.3-7.9-4.7-11.9-6.9c-2.6-1.4-5.5-2.3-8.4-2.8c0.1,0.3,0.3,0.6,0.5,0.9c0.4,0.5,0.9,1,1.5,1.4
			c4,2.1,7.3,5.1,10.8,7.9c4.2,3.5,8.7,6.7,13.4,9.6c0.3,0.2,0.6,0.4,1,0.5c1,0.2,1.6,1.2,1.5,2.2c0,1.8,0.3,3.5,0.3,5.3
			c0.2,1.7-0.6,3.3-2.2,4C96.7,116.3,96.1,116.7,95.6,117.1z"/>
		<path class="st1" d="M67.8,26.7c-4.7,7.5-11.1,13.9-18.6,18.5c-4.9,3-9.8,6.2-14.7,9.2c-5.4,3.4-10.4,7.4-14.9,11.9
			c-2.4,2.4-4.9,4.6-7.3,6.9c-0.2,0.2-0.5,0.4-0.8,0.6l-5.8-6.3c1-0.5,2-1,2.9-1.6c1.7-1.2,3.3-2.5,4.9-3.8
			c5.3-4.5,11.1-8.4,16.7-12.4l4.5-3.2c-0.1,0-0.2-0.1-0.2-0.1c-3.8,0.9-7.6,1.5-11.1,3.3c-2,1-3.9,2.3-5.8,3.5s-3.5,2.3-5.4,3.2
			c-3.6,1.8-7.3,3.5-10.9,5.2l-0.7,0.3c-0.2-0.6-0.4-1.2-0.5-1.8C0,58.4,0,56.9,0,55.3c0-0.4,0-0.6,0.4-0.8
			c8.7-3,16.7-7.4,24.9-11.6c4.9-2.6,9.9-4.8,15.1-6.7c3.3-1.2,6.3-3.2,8.8-5.7c1.4-1.3,2.7-2.7,4.1-4.1c0.2-0.2,0.5-0.4,0.8-0.4
			c4.3,0.1,8.6,0.3,13,0.5C67.3,26.6,67.6,26.6,67.8,26.7z"/>
		<path class="st1" d="M14.7,76.9c3-1.9,5.9-4,9-5.8c8-4.6,16-9.2,23.6-14.6c6-4.2,11.8-8.8,17.3-13.6c4.8-4.2,8.9-9.3,12.1-14.9
			c0.2-0.5,0.7-0.7,1.2-0.6c1.5,0.1,3,0.2,4.4,0.3c1.4,0.1,2.6,0.8,3.3,2c0.9,1.4,1.7,2.9,2.5,4.3c0.1,0.3,0,0.5-0.1,0.7
			c-1.7,2.6-4,4.8-6.7,6.3c-0.6,0.3-1,0.8-1.4,1.3c-2.4,3.9-5.5,7.4-9.1,10.2c-3.5,2.8-7.1,5.3-10.9,7.6l-24,14.5
			c-0.6,0.3-1.3,0.5-1.9,0.6c-2.2,0.3-4.5,0.7-6.7,1.1c-3.1,0.6-6.1,1.2-9.2,1.7c-1.2,0.2-2.4-0.1-3.3-0.8L14.7,76.9z"/>
		<path class="st1" d="M89.8,128.1c-2.2-1.8-4.2-3.6-6.4-5.3c-3.6-2.8-7.7-4.8-11.8-6.8c-4.7-2.3-9.4-4.7-14.1-7.1
			c-1.1-0.6-2.2-1.3-3.3-2.1c-0.2-0.2-0.4-0.5-0.4-0.8c0-1.3-0.3-2.5-1-3.5c-1.6-2.7-3.3-5.4-4.8-8.2c-0.8-1.6-1.4-3.2-2-4.8
			C46,89.3,46,89.1,46,88.9c2,0,3.9,0.4,5.8,1.2c2.3,1.1,4.4,2.4,6.3,4.1c4.7,4,9.7,7.6,15,10.9c6.9,4,13.6,8.4,20.1,13.1l0.7,0.5
			C91.4,121.3,90,124.6,89.8,128.1z"/>
		<path class="st1" d="M91.6,40.1l3.7,6.5c0.9,1.6,1.8,3.2,2.8,4.8c0.3,0.3,0.3,0.8,0,1.1c0,0-0.1,0-0.1,0.1
			c-4.5,4.3-9.7,8-15.2,10.9c-9.7,5.2-20,9.1-30.8,11.3c-3.3,0.9-6.6,1.3-10,1.3c-0.8-0.1-1.5-0.2-2.3-0.3c0-0.1,0-0.1,0-0.2
			l1.3-0.5c9.6-3.4,18.7-8.1,27.1-14c4.9-3.7,9.6-7.7,13.9-12.1c2.8-2.7,5.7-5.4,8.5-8.1C90.8,40.7,91.2,40.5,91.6,40.1z"/>
		<path class="st1" d="M101.1,56.7l5.4,9.4l-4.2,1.6c3.3,3,7,5.6,10.9,7.7l-7.9,10c-0.8-0.8-1.7-1.6-2.4-2.5
			c-1.3-1.7-3.4-2.7-5.6-2.6c-1.9,0-3.8-0.4-5.6-1.1c-4.6-1.8-9.4-3.4-14.2-4.6c-1.8-0.4-3.5-1.2-5-2.3c-0.2-0.1-0.3-0.3-0.6-0.5
			C82.1,67.7,91.8,62.6,101.1,56.7z"/>
		<path class="st1" d="M88.4,133.5l-5,5.7c-0.3-0.2-0.5-0.4-0.7-0.5c-2.3-1.4-4.5-2.9-6.8-4.3c-2.5-1.5-5-2.9-7.5-4.4
			c-3.2-2-6.7-3.1-10.5-3.4c-2-0.2-3.9-0.8-5.6-1.9c-0.3-0.2-0.5-0.4-0.6-0.7c-1.3-3.3-1.6-7-0.8-10.5c0.3,0.2,0.6,0.3,0.9,0.4
			c1.8,1,3.7,2,5.5,3.2c3.5,2.2,7.3,3.8,11.4,4.8C76.3,123.8,82.7,127.9,88.4,133.5z"/>
		<path class="st1" d="M116,107.9c0.1,1.5,0.2,3,0.2,4.5c-0.2,4.1-1.2,8.1-2.9,11.8c-1.2,2.8-2.4,5.5-3.6,8.3
			c-0.2,0.4-0.3,0.5-0.7,0.4c-1.3-0.4-2.6-0.7-3.9-1c-0.2-0.1-0.4-0.3-0.4-0.5c0-5.6,0.6-11.2,3-16.3c0.1-0.3,0.3-0.5,0.4-0.8
			c0.3-0.7,1-1.2,1.8-1.1c1.3,0.1,2.6-0.5,3.4-1.6c0.6-0.8,1.2-1.7,1.8-2.5l0.7-1L116,107.9z"/>
		<path class="st1" d="M115.5,72.6l-7.4-3.6c0-0.1,0-0.2,0-0.2l2.8-1c2.2-0.8,4.3-1.6,6.5-2.2c1.3-0.4,2.7-0.6,4-0.9l0.1,0.2
			L115.5,72.6z"/>
	</g>
</g>
</svg>
